<svg width="163" height="227" viewBox="0 0 163 227" fill="none" xmlns="http://www.w3.org/2000/svg">
<path d="M162.438 226.812H146.25V186.344C146.237 175.615 141.969 165.329 134.383 157.742C126.796 150.156 116.51 145.888 105.781 145.875H57.2188C46.4897 145.888 36.2038 150.156 28.6172 157.742C21.0306 165.329 16.7629 175.615 16.75 186.344V226.812H0.5625V186.344C0.583911 171.324 6.55991 156.926 17.1804 146.305C27.8008 135.685 42.1992 129.709 57.2188 129.688H105.781C120.801 129.709 135.199 135.685 145.82 146.305C156.44 156.926 162.416 171.324 162.438 186.344V226.812ZM130.062 32.5625V64.9375C130.062 73.8649 122.802 81.125 113.875 81.125H105.781C103.635 81.125 101.576 81.9777 100.058 83.4956C98.5402 85.0135 97.6875 87.0722 97.6875 89.2188C97.6875 91.3653 98.5402 93.424 100.058 94.9419C101.576 96.4598 103.635 97.3125 105.781 97.3125H113.875C131.73 97.3125 146.25 82.7923 146.25 64.9375V32.5625H130.062ZM81.5 113.5C50.2581 113.5 24.8438 88.0856 24.8438 56.8438C24.8438 25.6019 50.2581 0.1875 81.5 0.1875C97.5985 0.1875 112.985 7.06719 123.725 19.0702L111.665 29.8673C107.87 25.6226 103.221 22.2268 98.0226 19.9019C92.8245 17.5769 87.1943 16.3751 81.5 16.375C59.1855 16.375 41.0312 34.5293 41.0312 56.8438C41.0312 79.1582 59.1855 97.3125 81.5 97.3125V113.5Z" fill="#D16852"/>
</svg>
