<svg width="61" height="38" viewBox="0 0 61 38" fill="none" xmlns="http://www.w3.org/2000/svg">
<path d="M30.5 8.44444C28.4892 8.44444 26.5236 9.06352 24.8517 10.2234C23.1798 11.3832 21.8767 13.0318 21.1072 14.9606C20.3377 16.8893 20.1364 19.0117 20.5287 21.0593C20.921 23.1069 21.8892 24.9877 23.3111 26.4639C24.7329 27.9401 26.5444 28.9454 28.5166 29.3527C30.4887 29.76 32.5329 29.551 34.3906 28.7521C36.2483 27.9531 37.8361 26.6002 38.9533 24.8644C40.0704 23.1285 40.6667 21.0877 40.6667 19C40.6667 16.2005 39.5955 13.5156 37.6889 11.5361C35.7823 9.55654 33.1964 8.44444 30.5 8.44444ZM30.5 25.3333C29.2935 25.3333 28.1142 24.9619 27.111 24.266C26.1079 23.5701 25.326 22.5809 24.8643 21.4237C24.4026 20.2664 24.2818 18.993 24.5172 17.7644C24.7526 16.5359 25.3335 15.4074 26.1866 14.5217C27.0397 13.6359 28.1267 13.0327 29.3099 12.7884C30.4932 12.544 31.7197 12.6694 32.8344 13.1488C33.949 13.6281 34.9017 14.4399 35.572 15.4814C36.2422 16.5229 36.6 17.7474 36.6 19C36.6 20.6797 35.9573 22.2906 34.8134 23.4783C33.6694 24.6661 32.1178 25.3333 30.5 25.3333ZM58.9667 0H2.03333C1.49406 0 0.976873 0.22242 0.595549 0.618331C0.214225 1.01424 0 1.55121 0 2.11111V35.8889C0 36.4488 0.214225 36.9858 0.595549 37.3817C0.976873 37.7776 1.49406 38 2.03333 38H58.9667C59.5059 38 60.0231 37.7776 60.4044 37.3817C60.7858 36.9858 61 36.4488 61 35.8889V2.11111C61 1.55121 60.7858 1.01424 60.4044 0.618331C60.0231 0.22242 59.5059 0 58.9667 0ZM47.186 33.7778H13.814C13.1313 31.3806 11.8818 29.1989 10.1793 27.4313C8.47686 25.6637 6.37551 24.3664 4.06667 23.6576V14.3424C6.37551 13.6336 8.47686 12.3363 10.1793 10.5687C11.8818 8.80112 13.1313 6.61938 13.814 4.22222H47.186C47.8687 6.61938 49.1182 8.80112 50.8207 10.5687C52.5231 12.3363 54.6245 13.6336 56.9333 14.3424V23.6576C54.6245 24.3664 52.5231 25.6637 50.8207 27.4313C49.1182 29.1989 47.8687 31.3806 47.186 33.7778ZM56.9333 9.86153C54.4944 8.7727 52.5505 6.7544 51.5018 4.22222H56.9333V9.86153ZM9.49821 4.22222C8.4495 6.7544 6.50555 8.7727 4.06667 9.86153V4.22222H9.49821ZM4.06667 28.1385C6.50555 29.2273 8.4495 31.2456 9.49821 33.7778H4.06667V28.1385ZM51.5018 33.7778C52.5505 31.2456 54.4944 29.2273 56.9333 28.1385V33.7778H51.5018Z" fill="#EE6C4D"/>
</svg>
