<svg width="69" height="69" viewBox="0 0 69 69" fill="none" xmlns="http://www.w3.org/2000/svg">
<path d="M66.5603 23.6359C70.6875 19.5089 68.8055 14.6885 66.5603 12.3444L56.655 2.43957C52.4947 -1.68744 47.7071 0.194477 45.3629 2.43957L39.7498 8.08532H31.1982C24.9248 8.08532 21.2929 11.3869 19.4439 15.1838L4.78396 29.8429V43.0494L2.4397 45.3605C-1.68753 49.5205 0.194487 54.3078 2.4397 56.652L12.345 66.5568C14.128 68.3397 16.043 69 17.859 69C20.2033 69 22.3494 67.8444 23.6371 66.5568L32.5519 57.6094H44.4053C50.0184 57.6094 52.8579 54.1097 53.8815 50.6761C57.6125 49.6856 59.6596 46.8462 60.485 44.0729C65.6028 42.7522 67.5178 37.8988 67.5178 34.4982V24.5934H65.5698L66.5603 23.6359ZM60.9143 34.4982C60.9143 35.9839 60.2869 37.7998 57.6125 37.7998H54.3107V41.1014C54.3107 42.5871 53.6834 44.403 51.0089 44.403H47.7071V47.7046C47.7071 49.1903 47.0798 51.0062 44.4053 51.0062H29.8445L19.0146 61.8355C17.9911 62.793 17.3968 62.2317 17.0336 61.8685L7.16125 52.0297C6.20373 51.0062 6.76503 50.4119 7.12823 50.0488L11.3875 45.7567V32.5502L17.9911 25.947V31.1966C17.9911 35.1915 20.6325 41.1014 27.8964 41.1014C35.1604 41.1014 37.8018 35.1915 37.8018 31.1966H60.9143V34.4982ZM61.8718 18.9476L56.2587 24.5934H31.1982V31.1966C31.1982 32.6823 30.5709 34.4982 27.8964 34.4982C25.222 34.4982 24.5947 32.6823 24.5947 31.1966V21.2918C24.5947 19.773 25.156 14.6885 31.1982 14.6885H42.4573L49.9854 7.16087C51.0089 6.2034 51.6032 6.76468 51.9664 7.12785L61.8388 16.9666C62.7963 17.9901 62.235 18.5844 61.8718 18.9476Z" fill="#EE6C4D"/>
</svg>
