<svg width="58" height="46" viewBox="0 0 58 46" fill="none" xmlns="http://www.w3.org/2000/svg">
<path d="M5.8 0C4.26174 0 2.78649 0.605802 1.69878 1.68414C0.611069 2.76247 0 4.22501 0 5.75V37.375C0 38.9 0.611069 40.3625 1.69878 41.4409C2.78649 42.5192 4.26174 43.125 5.8 43.125V46H11.6V43.125H43.5V46H49.3V43.125C50.8383 43.125 52.3135 42.5192 53.4012 41.4409C54.4889 40.3625 55.1 38.9 55.1 37.375V34.5H58V28.75H55.1V14.375H58V8.625H55.1V5.75C55.1 4.22501 54.4889 2.76247 53.4012 1.68414C52.3135 0.605802 50.8383 0 49.3 0H5.8ZM5.8 5.75H49.3V37.375H5.8V5.75ZM33.35 10.0625C30.2735 10.0625 27.323 11.2741 25.1476 13.4308C22.9721 15.5874 21.75 18.5125 21.75 21.5625C21.75 24.6125 22.9721 27.5376 25.1476 29.6942C27.323 31.8509 30.2735 33.0625 33.35 33.0625C36.4265 33.0625 39.377 31.8509 41.5524 29.6942C43.7279 27.5376 44.95 24.6125 44.95 21.5625C44.95 18.5125 43.7279 15.5874 41.5524 13.4308C39.377 11.2741 36.4265 10.0625 33.35 10.0625ZM8.7 14.375V28.75H14.5V14.375H8.7ZM33.35 15.8125C34.8883 15.8125 36.3635 16.4183 37.4512 17.4966C38.5389 18.575 39.15 20.0375 39.15 21.5625C39.15 23.0875 38.5389 24.55 37.4512 25.6284C36.3635 26.7067 34.8883 27.3125 33.35 27.3125C31.8117 27.3125 30.3365 26.7067 29.2488 25.6284C28.1611 24.55 27.55 23.0875 27.55 21.5625C27.55 20.0375 28.1611 18.575 29.2488 17.4966C30.3365 16.4183 31.8117 15.8125 33.35 15.8125Z" fill="#EE6C4D"/>
</svg>
