<svg width="21" height="19" viewBox="0 0 21 19" fill="none" xmlns="http://www.w3.org/2000/svg">
<path d="M20.0002 7.5C20.0003 8.13472 19.759 8.74571 19.3252 9.20905C18.8914 9.67238 18.2976 9.95336 17.6642 9.995L17.5002 10L12.8952 10L12.2902 15.442C12.1854 16.3855 11.7484 17.261 11.0573 17.9119C10.3663 18.5628 9.4663 18.9467 8.51821 18.995L8.31521 19L8.00021 19C5.92179 19 3.92496 18.1911 2.43251 16.7445C0.940059 15.298 0.0691637 13.3274 0.00421284 11.25L0.000213142 11L0.000213172 10.326C0.000241845 8.88847 0.387613 7.47751 1.12159 6.24148C1.85557 5.00546 2.90903 3.99004 4.17121 3.302L4.42221 3.171L10.1062 0.329C10.8262 -0.0310005 11.7892 0.236 12.1342 1.076C12.5612 2.119 12.6412 3.11 12.1222 4.131C12.0092 4.353 11.8702 4.571 11.7082 4.785L11.5382 5L17.5002 5C18.1633 5 18.7991 5.26339 19.268 5.73223C19.7368 6.20107 20.0002 6.83696 20.0002 7.5ZM18.0002 7.5C18.0003 7.38297 17.9592 7.26964 17.8843 7.17974C17.8094 7.08984 17.7053 7.02906 17.5902 7.008L17.5002 7L9.00021 7C8.79318 6.99984 8.59131 6.93542 8.42244 6.81565C8.25358 6.69587 8.12605 6.52663 8.05747 6.33129C7.98888 6.13596 7.98261 5.92414 8.03952 5.72509C8.09644 5.52604 8.21373 5.34955 8.37521 5.22L8.78221 4.888L9.13621 4.585C9.79321 4.005 10.1562 3.584 10.3392 3.225C10.4541 3.01286 10.5018 2.77087 10.4762 2.531L10.4562 2.39L5.31621 4.96C4.35672 5.43992 3.54345 6.16833 2.96112 7.06935C2.37879 7.97038 2.04869 9.01106 2.00521 10.083L2.00021 10.326L2.00021 11C2.00016 12.5524 2.60178 14.0444 3.67868 15.1625C4.75558 16.2806 6.22392 16.9378 7.77521 16.996L8.00021 17L8.31521 17C8.77992 17.0001 9.23014 16.8383 9.58854 16.5425C9.94694 16.2467 10.1912 15.8353 10.2792 15.379L10.3032 15.221L10.9072 9.779C10.9585 9.31696 11.1692 8.88723 11.5029 8.56366C11.8367 8.24009 12.2728 8.04291 12.7362 8.006L12.8952 8L17.5002 8C17.6328 8 17.76 7.94732 17.8538 7.85355C17.9475 7.75979 18.0002 7.63261 18.0002 7.5ZM16.0002 2C16.0002 2.26522 15.8949 2.51957 15.7073 2.70711C15.5198 2.89464 15.2654 3 15.0002 3C14.735 3 14.4806 2.89464 14.2931 2.70711C14.1056 2.51957 14.0002 2.26522 14.0002 2L14.0002 1C14.0002 0.734783 14.1056 0.480429 14.2931 0.292893C14.4806 0.105357 14.735 -2.73852e-07 15.0002 -2.62259e-07C15.2654 -2.50666e-07 15.5198 0.105357 15.7073 0.292893C15.8949 0.480429 16.0002 0.734783 16.0002 1L16.0002 2ZM17.0002 14C16.9999 14.2549 16.9023 14.5 16.7274 14.6854C16.5524 14.8707 16.3133 14.9822 16.0588 14.9972C15.8044 15.0121 15.5538 14.9293 15.3584 14.7657C15.1629 14.6021 15.0373 14.3701 15.0072 14.117L15.0002 14L15.0002 13C15.0005 12.7451 15.0981 12.5 15.2731 12.3146C15.448 12.1293 15.6872 12.0178 15.9416 12.0028C16.196 11.9879 16.4466 12.0707 16.642 12.2343C16.8375 12.3979 16.9631 12.6299 16.9932 12.883L17.0002 13L17.0002 14ZM20.7072 2.707L19.7072 3.707C19.5186 3.88916 19.266 3.98995 19.0038 3.98767C18.7416 3.9854 18.4908 3.88023 18.3054 3.69482C18.12 3.50941 18.0148 3.2586 18.0125 2.9964C18.0103 2.7342 18.1111 2.4816 18.2932 2.293L19.2932 1.293C19.4818 1.11084 19.7344 1.01005 19.9966 1.01233C20.2588 1.0146 20.5096 1.11977 20.695 1.30518C20.8804 1.49059 20.9856 1.7414 20.9879 2.0036C20.9902 2.2658 20.8894 2.5184 20.7072 2.707ZM20.7072 13.707C20.5197 13.8945 20.2654 13.9998 20.0002 13.9998C19.735 13.9998 19.4807 13.8945 19.2932 13.707L18.2932 12.707C18.1977 12.6148 18.1215 12.5044 18.0691 12.3824C18.0167 12.2604 17.9891 12.1292 17.988 11.9964C17.9868 11.8636 18.0121 11.7319 18.0624 11.609C18.1127 11.4861 18.1869 11.3745 18.2808 11.2806C18.3747 11.1867 18.4864 11.1125 18.6093 11.0622C18.7322 11.0119 18.8638 10.9866 18.9966 10.9877C19.1294 10.9889 19.2606 11.0165 19.3826 11.0689C19.5046 11.1213 19.615 11.1975 19.7072 11.293L20.7072 12.293C20.8947 12.4805 21 12.7348 21 13C21 13.2652 20.8947 13.5195 20.7072 13.707Z" fill="#EE6C4D"/>
</svg>
