<svg width="68" height="68" viewBox="0 0 68 68" fill="none" xmlns="http://www.w3.org/2000/svg">
<path d="M65 15.7332H51.8229C51.6871 15.7332 51.5526 15.7065 51.4272 15.6547C51.3018 15.6028 51.188 15.5268 51.0922 15.431C50.9964 15.3352 50.9205 15.2215 50.869 15.0965C50.8175 14.9714 50.7913 14.8375 50.7919 14.7024C50.7933 14.4536 50.8834 14.2135 51.0461 14.0246L60.4446 3.33409C60.5365 3.22908 60.65 3.14491 60.7774 3.08728C60.9048 3.02965 61.0431 2.99989 61.183 3.00001C61.7201 3.00001 62.1565 3.43909 62.1565 3.97362V19.976M42.8703 19.9713H31.5057V17.5611C31.5069 16.7366 31.7492 15.9301 32.203 15.2403C32.6569 14.5505 33.3026 14.007 34.0615 13.6763L40.3912 10.9225C41.267 10.5429 41.9846 9.87443 42.423 9.02968C42.8614 8.18493 42.9937 7.21558 42.7977 6.28503C42.6017 5.35449 42.0893 4.51966 41.347 3.92126C40.6047 3.32286 39.6777 2.9975 38.7225 3.00001H35.7686C34.8872 3.00098 34.0277 3.27357 33.3081 3.78033C32.5886 4.28708 32.0444 5.00315 31.7503 5.83015M36.4256 62.9483C38.9114 64.5413 41.8702 65.2397 44.81 64.9271C47.7499 64.6145 50.4937 63.3099 52.5853 61.2301L54.4075 59.4166C55.2157 58.6035 55.669 57.5059 55.669 56.3621C55.669 55.2184 55.2157 54.1208 54.4075 53.3077L46.7352 45.7193C45.9264 44.9178 44.8316 44.4679 43.6903 44.4679C42.5489 44.4679 41.4541 44.9178 40.6453 45.7193C39.8284 46.5237 38.7256 46.9749 37.5764 46.9749C36.4272 46.9749 35.3244 46.5237 34.5075 45.7193L22.2798 33.5492C21.4716 32.7361 21.0183 31.6385 21.0183 30.4948C21.0183 29.351 21.4716 28.2534 22.2798 27.4403C23.0851 26.6354 23.5372 25.5457 23.5372 24.4098C23.5372 23.2738 23.0851 22.1842 22.2798 21.3792L14.8952 13.7431C14.0783 12.9387 12.9755 12.4875 11.8263 12.4875C10.6772 12.4875 9.57437 12.9387 8.75743 13.7431L6.93526 15.5566C4.80815 17.609 3.45258 20.3254 3.09479 23.2524C2.737 26.1795 3.39862 29.1401 4.96924 31.6402C13.3308 43.9953 24.012 54.6261 36.4256 62.9483Z" stroke="#EE6C4D" stroke-width="5" stroke-linecap="round" stroke-linejoin="round"/>
</svg>
